<?xml version="1.0" encoding="UTF-8"?>
<svg width="57px" height="22px" viewBox="0 0 57 22" version="1.1" xmlns="http://www.w3.org/2000/svg" xmlns:xlink="http://www.w3.org/1999/xlink">
    <!-- Generator: Sketch 61 (89581) - https://sketch.com -->
    <title>FamAhorro</title>
    <desc>Created with Sketch.</desc>
    <g id="NGS_Payment_PayInCash" stroke="none" stroke-width="1" fill="none" fill-rule="evenodd">
        <g id="02_Payment_PayinCash" transform="translate(-639.000000, -1868.000000)">
            <g id="Payment" transform="translate(165.000000, 1479.000000)">
                <g transform="translate(0.000000, 66.000000)" id="Select-your-country_B">
                    <g transform="translate(285.000000, 130.000000)">
                        <g id="Debit" transform="translate(20.000000, 164.000000)">
                            <g id="FamAhorro" transform="translate(162.000000, 24.000000)">
                                <rect id="Path" fill-rule="nonzero" x="0" y="0" width="72" height="32"></rect>
                                <g id="farmacias_del_ahorro" transform="translate(7.000000, 5.000000)">
                                    <path d="M18.8075556,16.1333333 C17.7124444,10.8891852 16.6205926,5.64503704 15.532,0.400888889 C18.876,0.948444444 21.0564444,2.67911111 21.8435556,5.84711111 C22.4986667,9.47466667 21.4328889,12.8968889 18.8075556,16.1137778 L18.8075556,16.1333333 Z M12.3053333,4.91333333 L14.0995556,13.0631111 L8.05688889,13.0631111 L12.3053333,4.91333333 Z M9.57733333,1.40311111 L1.232,17.5511111 C0.488888889,15.1555556 -0.528,12.9066667 2.40044444,7.76355556 C4.356,4.532 6.87866667,2.76222222 9.57733333,1.408 L9.57733333,1.40311111 Z M6.22355556,16.5146667 L14.7644444,16.5146667 C14.96,17.4191111 15.1506667,18.3235556 15.3462222,19.228 C13.7311757,20.346468 11.8989116,21.1126875 9.96844444,21.4768889 C7.7,21.8256296 5.75096296,21.5208889 4.12133333,20.5626667 L6.22355556,16.5146667 Z" id="Shape" fill="#EB212E"></path>
                                    <path d="M41.9808889,3.00177778 L42.7582222,3.00177778 L42.7582222,3.76444444 L41.9808889,3.76444444 L41.9808889,3.00177778 Z M41.9808889,4.23866667 L42.7533333,4.23866667 L42.7533333,8.08622222 L41.9906667,8.08622222 L41.9906667,4.23866667 L41.9808889,4.23866667 Z M41.2133333,5.62711111 L40.4555556,5.62711111 C40.4849833,5.40255558 40.4666575,5.17431674 40.4017778,4.95733333 C40.3438396,4.8818161 40.2523765,4.83974309 40.1573333,4.84488889 C40.0742222,4.84488889 39.9226667,4.87911111 39.8982222,4.96222222 C39.7818917,5.77288493 39.7818917,6.59600396 39.8982222,7.40666667 C39.8982222,7.48488889 40.0693333,7.51911111 40.1524444,7.51911111 C40.2355556,7.51911111 40.3724444,7.48488889 40.4017778,7.40177778 C40.4604306,7.12723273 40.4818082,6.84603429 40.4653333,6.56577778 L41.2231111,6.56577778 C41.2231111,6.95688889 41.3111111,7.70977778 41.0422222,7.98844444 C40.8020003,8.19560704 40.4878748,8.29619781 40.172,8.26711111 C39.8383557,8.30638421 39.5079122,8.17162233 39.2968889,7.91022222 C39.0908519,7.46594646 39.0048832,6.97541956 39.0475556,6.48755556 L39.0475556,5.89111111 C38.9951612,5.43586023 39.0660789,4.97489465 39.2528889,4.55644444 C39.4845691,4.29136448 39.8322075,4.15779814 40.1817778,4.19955556 C40.4699379,4.16811042 40.7565605,4.27086188 40.9591111,4.47822222 C41.1836724,4.81643454 41.277509,5.22479754 41.2231111,5.62711111 L41.2133333,5.62711111 Z M34.2222222,4.76177778 C34.3114171,4.60435643 34.433071,4.4677041 34.5791111,4.36088889 C34.692843,4.27423429 34.8321329,4.22780432 34.9751111,4.22888889 C35.1971623,4.21558409 35.4119869,4.31025254 35.552,4.48311111 C35.6680828,4.73865429 35.7152755,5.02012528 35.6888889,5.29955556 L35.6888889,8.08133333 L34.9164444,8.08133333 L34.9164444,5.42177778 C34.9164444,5.26533333 34.8577778,4.97688889 34.6035556,4.972 C34.3493333,4.96711111 34.3004444,5.148 34.3004444,5.42177778 L34.3004444,8.08622222 L33.5231111,8.08622222 L33.5231111,5.42177778 C33.5231111,5.17733333 33.5231111,4.972 33.1808889,4.972 C32.8386667,4.972 32.9071111,5.26533333 32.912,5.42177778 L32.912,8.08133333 L32.1346667,8.08133333 L32.1346667,4.29244444 L32.8533333,4.29244444 L32.8826667,4.72755556 C32.9614481,4.58284689 33.0697043,4.4562703 33.2004444,4.356 C33.3054368,4.27459703 33.4342626,4.22993742 33.5671111,4.22888889 C33.7193494,4.22243299 33.8682073,4.2749711 33.9826667,4.37555556 C34.1011481,4.47273666 34.1795068,4.61029959 34.2026667,4.76177778 L34.2222222,4.76177778 Z M31.6995556,4.224 L31.6995556,5.31911111 L31.2106667,5.31911111 C31.1128889,5.31911111 31.064,5.35822222 31.064,5.456 L31.064,8.09111111 L30.3111111,8.09111111 L30.3111111,4.24355556 L30.9368889,4.24355556 L30.9368889,4.85955556 C31.0737778,4.74711111 31.1813333,4.50266667 31.3377778,4.37066667 C31.436286,4.26879321 31.5725258,4.2121741 31.7142222,4.21422222 L31.6995556,4.224 Z M29.6902222,5.29955556 L29.6902222,8.08622222 L28.9128889,8.08622222 L28.8737778,7.74888889 C28.6844573,8.02389601 28.3844457,8.20247433 28.0524444,8.23777778 C27.5342222,8.23777778 27.2946667,7.58755556 27.2995556,7.128 C27.2849561,6.6418549 27.5566159,6.19227706 27.9937778,5.97911111 C28.3066667,5.79822222 28.688,5.764 28.7417778,5.56844444 L28.7417778,5.35822222 C28.7417778,5.17733333 28.776,4.84 28.4875556,4.84 C28.1013333,4.84 28.1208889,5.13822222 28.1208889,5.46088889 L27.3777778,5.46088889 C27.3777778,4.66888889 27.7004444,4.22888889 28.5657778,4.22888889 C28.8656215,4.18318713 29.169697,4.27922239 29.3888999,4.48885305 C29.6081027,4.6984837 29.7176104,4.99797126 29.6853333,5.29955556 L29.6902222,5.29955556 Z M28.9275556,6.19911111 C28.3408889,6.34577778 28.1453333,6.44844444 28.1502222,7.04 C28.1502222,7.36755556 28.1942222,7.49466667 28.4728889,7.48977778 C28.6615283,7.44149495 28.8243419,7.32244843 28.9275556,7.15733333 L28.9275556,6.17955556 L28.9275556,6.19911111 Z M24.64,3.00177778 L26.8888889,3.00177778 L26.8888889,3.91111111 L25.52,3.91111111 L25.52,4.99155556 L26.752,4.99155556 L26.752,5.91066667 L25.52,5.91066667 L25.52,8.06177778 L24.5911111,8.06177778 L24.6204444,2.97733333 L24.64,3.00177778 Z M38.4511111,5.29955556 L38.4511111,8.08622222 L37.6737778,8.08622222 L37.6444444,7.74888889 C37.4551239,8.02389601 37.1551124,8.20247433 36.8231111,8.23777778 C36.3048889,8.23777778 36.0653333,7.58755556 36.0702222,7.128 C36.0556228,6.6418549 36.3272826,6.19227706 36.7644444,5.97911111 C37.0773333,5.79822222 37.4586667,5.764 37.5124444,5.56844444 L37.5124444,5.35822222 C37.5124444,5.17733333 37.5515556,4.84 37.2582222,4.84 C36.872,4.84 36.8915556,5.13822222 36.8915556,5.46088889 L36.1288889,5.46088889 C36.1288889,4.66888889 36.4515556,4.22888889 37.312,4.22888889 C37.6118437,4.18318713 37.9159193,4.27922239 38.1351221,4.48885305 C38.3543249,4.6984837 38.4638326,4.99797126 38.4315556,5.29955556 L38.4511111,5.29955556 Z M37.6884444,6.19911111 C37.1066667,6.34577778 36.9111111,6.44844444 36.9111111,7.04 C36.9111111,7.36755556 36.9551111,7.49466667 37.2337778,7.48977778 C37.4224172,7.44149495 37.5852308,7.32244843 37.6884444,7.15733333 L37.6884444,6.17955556 L37.6884444,6.19911111 Z M45.6964444,5.30933333 L45.6964444,8.09111111 L44.924,8.09111111 L44.8848889,7.75377778 C44.6935749,8.02902331 44.3920158,8.20746065 44.0586667,8.24266667 C43.5453333,8.24266667 43.3008889,7.59244444 43.3106667,7.13288889 C43.2951735,6.64785919 43.5647417,6.19857883 44,5.984 C44.3128889,5.80311111 44.6942222,5.76888889 44.748,5.57333333 L44.748,5.37777778 C44.748,5.19688889 44.7871111,4.85955556 44.4986667,4.85955556 C44.1075556,4.85955556 44.1271111,5.15777778 44.1271111,5.48533333 L43.3742222,5.48533333 C43.3742222,4.68844444 43.6968889,4.24844444 44.5573333,4.24844444 C44.8581158,4.20242605 45.1631781,4.2990602 45.3826069,4.50986522 C45.6020358,4.72067023 45.7108171,5.02161506 45.6768889,5.324 L45.6964444,5.30933333 Z M44.9337778,6.204 C44.352,6.35066667 44.1564444,6.45333333 44.1613333,7.04488889 C44.1613333,7.37244444 44.2004444,7.49955556 44.484,7.49466667 C44.671362,7.44929778 44.8331006,7.33150993 44.9337778,7.16711111 L44.9337778,6.18933333 L44.9337778,6.204 Z M55.8604444,3.01155556 L56.7893333,3.01155556 L56.7893333,8.08133333 L55.8604444,8.08133333 L55.8604444,3.01155556 L55.8604444,3.01155556 Z M54.472,5.32888889 C54.472,5.09911111 54.3693333,4.84 54.1004444,4.84 C53.8315556,4.84 53.6995556,5.20177778 53.7044444,5.36311111 L53.7044444,5.63688889 L54.4573333,5.63688889 L54.4573333,5.32888889 L54.472,5.32888889 Z M55.2444444,5.89111111 L55.2444444,6.24311111 L53.7191111,6.24311111 L53.7191111,6.97644444 C53.7191111,7.26977778 53.7191111,7.50933333 54.0808889,7.50933333 C54.4426667,7.50933333 54.4768889,7.28444444 54.4768889,6.97644444 L54.4768889,6.84444444 L55.2444444,6.84444444 L55.2444444,6.95688889 C55.2804976,7.27650367 55.1791559,7.59639641 54.9656424,7.83694873 C54.7521289,8.07750105 54.4465236,8.21609006 54.1248889,8.21822222 C53.8270539,8.25610252 53.5272983,8.16420406 53.3018713,7.9659031 C53.0764443,7.76760215 52.9470733,7.48201177 52.9466667,7.18177778 L52.9466667,5.87644444 C52.9045711,5.43019236 52.9893015,4.98112115 53.1911111,4.58088889 C53.4360427,4.30251325 53.7998373,4.15881437 54.1688889,4.19466667 C54.5226773,4.16198145 54.8704681,4.3021903 55.1026667,4.57111111 C55.2749891,4.9832048 55.3356933,5.43342728 55.2786667,5.87644444 L55.2444444,5.89111111 Z M51.5386667,3.01155556 L52.4626667,3.01155556 L52.4626667,8.08622222 L51.7244444,8.08622222 L51.7244444,7.62666667 C51.6046899,7.8150075 51.4523924,7.98054824 51.2746667,8.11555556 C51.1741958,8.19829925 51.0479337,8.24326931 50.9177778,8.24266667 C50.7083688,8.2563638 50.5080396,8.15526307 50.3946667,7.97866667 C50.2639414,7.69925195 50.2035202,7.3921108 50.2186667,7.084 L50.2186667,5.26533333 C50.2004215,4.99159131 50.2744361,4.71963082 50.4288889,4.49288889 C50.521446,4.30882542 50.7118125,4.19460552 50.9177778,4.19955556 C51.06527,4.20312371 51.2083098,4.25080364 51.3284444,4.33644444 C51.4400673,4.45381244 51.5280399,4.59158092 51.5875556,4.74222222 L51.5875556,3.01155556 L51.5386667,3.01155556 Z M51.5386667,5.42177778 C51.5386667,5.22622222 51.5386667,4.97688889 51.2844444,4.972 C51.0302222,4.96711111 50.9764444,5.13822222 50.9764444,5.42177778 L50.9764444,6.92755556 C50.9764444,7.29422222 51.0986667,7.41644444 51.2746667,7.41644444 C51.5288889,7.41644444 51.5386667,7.08888889 51.5386667,6.92755556 L51.5386667,5.42177778 L51.5386667,5.42177778 Z M48.3217778,5.192 L48.3217778,5.30444444 L47.564,5.30444444 L47.564,5.20666667 C47.564,4.96711111 47.5933333,4.84 47.2462222,4.84 C46.8991111,4.84 46.9088889,5.05022222 46.9088889,5.20666667 C46.905261,5.29184056 46.9331045,5.37537096 46.9871111,5.44133333 C47.0757909,5.54104012 47.1817986,5.62385859 47.3,5.68577778 L47.7546667,5.95955556 C47.9340236,6.05658589 48.0855121,6.19797511 48.1946667,6.37022222 C48.2862386,6.55019838 48.3316007,6.75012751 48.3266667,6.952 L48.3266667,7.14266667 C48.3418836,7.43904214 48.2256103,7.72704202 48.0088889,7.92977778 C47.7455735,8.13025081 47.4204233,8.23229266 47.0897778,8.21822222 C46.8795328,8.22213317 46.6754524,8.14712924 46.5177778,8.008 C46.2661391,7.79016347 46.1350644,7.46429722 46.1657778,7.13288889 L46.1657778,7.00088889 L46.86,7.00088889 C46.8416013,7.18635383 46.8719345,7.37340913 46.948,7.54355556 C47.0291444,7.60506266 47.1300469,7.63463752 47.2315556,7.62666667 C47.432,7.62666667 47.5591111,7.51422222 47.5591111,7.13777778 C47.5481147,7.02729246 47.4998374,6.92384103 47.4222222,6.84444444 C47.2804444,6.60488889 46.8355556,6.41422222 46.596,6.27733333 C46.4326162,6.19186977 46.2956865,6.06339249 46.2,5.90577778 C46.1201502,5.75593654 46.0861459,5.58591536 46.1022222,5.41688889 L46.1022222,5.13333333 C46.0757151,4.88423176 46.1724355,4.63786854 46.3613333,4.47333333 C46.5696768,4.29293752 46.8388435,4.19855438 47.1142222,4.20933333 C47.4056131,4.18047052 47.6967696,4.26641429 47.9257778,4.44888889 C48.1492392,4.63501523 48.2782501,4.91095515 48.2777778,5.20177778 L48.3217778,5.192 Z" id="Shape" fill="#0057A1" fill-rule="nonzero"></path>
                                    <path d="M24.7182222,9.45511111 L19.7657778,18.8808889 L22.0782222,18.8808889 L23.1782222,16.8471111 L25.6813333,16.8471111 L25.6813333,18.8808889 L27.9302222,18.8808889 L27.6711111,9.504 L24.6986667,9.45511111 L24.7182222,9.45511111 Z M25.696,12.1146667 L24.0044444,15.1555556 L25.6813333,15.1555556 L25.6813333,12.1146667 L25.696,12.1146667 Z M29.9982222,9.504 L32.1248889,9.504 L31.636,12.5644444 L31.812,12.5644444 C32.2730478,12.3598874 32.7745974,12.2629212 33.2786667,12.2808889 C33.8555556,12.3297778 34.7893333,12.6133333 34.7453333,13.3515556 L34.144,18.876 L31.9831111,18.876 C32.164,17.468 32.3448889,15.9964444 32.5257778,14.5884444 C32.604,14.1288889 32.5648889,13.7964444 32.1737778,13.7768889 C31.5822222,13.7768889 31.504,14.1142222 31.4355556,14.5884444 L30.8488889,18.8808889 L28.7466667,18.8808889 L29.9835556,9.50888889 L29.9982222,9.504 Z M36.0017778,13.6888889 C36.5676587,12.762791 37.5810584,12.2049563 38.6662222,12.2222222 C39.8933333,12.2222222 40.4311111,12.6573333 40.8271111,13.3955556 C41.2231111,14.1337778 41.0226667,16.0013333 40.524,16.9937778 C39.8786667,18.084 38.9253333,18.9102222 37.5368889,18.9493333 C36.1484444,18.9884444 35.5813333,18.5533333 35.3222222,17.4533333 C35.1013556,16.1576593 35.3418259,14.825558 36.0017778,13.6888889 L36.0017778,13.6888889 Z M38.8715556,14.0653333 C39.0214137,15.1501686 38.7879941,16.2532926 38.2115556,17.1844444 C37.9622222,17.4924444 37.5808889,17.5511111 37.3755556,17.1551111 C37.0284444,16.4804444 37.3755556,14.7106667 37.928,13.9724444 C38.0315698,13.7975481 38.2270759,13.6984812 38.4293601,13.7183952 C38.6316442,13.7383092 38.804079,13.8735982 38.8715556,14.0653333 L38.8715556,14.0653333 Z M51.4164444,13.6888889 C51.9823254,12.762791 52.9957251,12.2049563 54.0808889,12.2222222 C55.308,12.2222222 55.8457778,12.6573333 56.2417778,13.3955556 C56.6377778,14.1337778 56.4373333,16.0013333 55.9386667,16.9937778 C55.2933333,18.084 54.34,18.9102222 52.9564444,18.9493333 C51.5728889,18.9884444 51.0008889,18.5533333 50.7368889,17.4533333 C50.5160223,16.1576593 50.7564925,14.825558 51.4164444,13.6888889 L51.4164444,13.6888889 Z M54.2862222,14.0653333 C54.4360804,15.1501686 54.2026607,16.2532926 53.6262222,17.1844444 C53.3817778,17.4924444 52.9955556,17.5511111 52.7902222,17.1551111 C52.4431111,16.4804444 52.7902222,14.7106667 53.3426667,13.9724444 C53.4462365,13.7975481 53.6417426,13.6984812 53.8440267,13.7183952 C54.0463109,13.7383092 54.2187457,13.8735982 54.2862222,14.0653333 Z M42.1813333,12.2466667 L44.2884444,12.2466667 C44.2884444,12.3395556 44.2884444,12.4324444 44.2884444,12.5253333 C44.3859069,12.5364382 44.4843153,12.5364382 44.5817778,12.5253333 C45.0168889,12.4568889 45.628,12.3102222 45.9408889,12.276 L45.6915556,14.3684444 C45.5351111,14.3684444 44.1173333,14.3244444 43.912,15.268 C43.7066667,16.2115556 43.5111111,18.876 43.5111111,18.876 L41.3111111,18.876 L42.1813333,12.2466667 Z M46.8111111,12.2466667 L48.9182222,12.2466667 C48.9182222,12.3395556 48.9182222,12.4324444 48.9182222,12.5253333 C49.0157758,12.5346966 49.1140019,12.5346966 49.2115556,12.5253333 C49.6466667,12.4617778 50.2577778,12.3102222 50.5706667,12.2808889 L50.3213333,14.3684444 C50.1648889,14.3684444 48.7471111,14.3293333 48.5417778,15.2728889 C48.3364444,16.2164444 48.1311111,18.9004444 48.1311111,18.9004444 L45.9555556,18.9004444 L46.8111111,12.2222222 L46.8111111,12.2466667 Z" id="Shape" fill="#0057A1"></path>
                                    <path d="M55.3764444,19.7951111 L55.3764444,20.0444444 L55.4888889,20.0444444 C55.5379412,20.047813 55.5869781,20.0376674 55.6306667,20.0151111 C55.6644029,19.9946254 55.6834088,19.9566138 55.6795556,19.9173333 C55.6812653,19.8784792 55.6627758,19.8415002 55.6306667,19.8195556 C55.5852074,19.7970518 55.5346177,19.7869339 55.484,19.7902222 L55.3764444,19.7951111 Z M55.2004444,19.6826667 L55.5133333,19.6826667 C55.6020328,19.6763764 55.6905821,19.6968109 55.7675556,19.7413333 C55.8257289,19.77346 55.8600397,19.8363632 55.8555556,19.9026667 C55.8573296,19.9550527 55.841873,20.0065747 55.8115556,20.0493333 C55.7753685,20.0892552 55.7274328,20.116647 55.6746667,20.1275556 L55.8555556,20.4942222 L55.66,20.4942222 L55.4986667,20.1568889 L55.3764444,20.1568889 L55.3764444,20.4942222 L55.2004444,20.4942222 L55.2004444,19.6826667 L55.2004444,19.6826667 Z M55.4986667,19.4871111 C55.4098604,19.4905397 55.3229679,19.5139338 55.2444444,19.5555556 C55.1708617,19.5856136 55.1042843,19.6305533 55.0488889,19.6875556 C54.9911952,19.7471407 54.9448118,19.8167158 54.912,19.8928889 C54.8785718,19.9665402 54.8618754,20.0466826 54.8631111,20.1275556 C54.8625813,20.2078767 54.8775198,20.2875488 54.9071111,20.3622222 C54.9371692,20.435805 54.9821089,20.5023823 55.0391111,20.5577778 C55.0961008,20.616351 55.1642599,20.6628986 55.2395556,20.6946667 C55.3116093,20.7276975 55.3900738,20.7443921 55.4693333,20.7435556 C55.5512032,20.7436531 55.6323973,20.7287399 55.7088889,20.6995556 C55.7840654,20.6649351 55.8533508,20.6187448 55.9142222,20.5626667 C55.9707039,20.5068375 56.0155673,20.4403733 56.0462222,20.3671111 C56.0778438,20.2945981 56.0944735,20.2164387 56.0951111,20.1373333 C56.096911,20.0548323 56.0802056,19.9729761 56.0462222,19.8977778 C55.9938574,19.7452729 55.8805479,19.6213407 55.7333333,19.5555556 C55.659682,19.5221273 55.5795396,19.505431 55.4986667,19.5066667 L55.4986667,19.4871111 Z M55.4986667,19.3795556 C55.69398,19.3751479 55.8821106,19.4532399 56.0168889,19.5946667 C56.084874,19.6610876 56.1381698,19.7410313 56.1733333,19.8293333 C56.2089721,19.9162032 56.2272423,20.009215 56.2271118,20.1031111 C56.2267785,20.1985466 56.2085368,20.2930718 56.1733333,20.3817778 C56.1345639,20.4693227 56.0798566,20.548897 56.012,20.6164444 C55.945579,20.6844296 55.8656354,20.7377254 55.7773333,20.7728889 C55.6001256,20.8443889 55.4020966,20.8443889 55.2248889,20.7728889 C55.1365174,20.7329925 55.0555248,20.6784465 54.9853333,20.6115556 C54.9211063,20.5420966 54.8683021,20.4628904 54.8288889,20.3768889 C54.7941721,20.2897448 54.7759371,20.1969123 54.7751067,20.1031111 C54.7747657,20.0071213 54.7947602,19.9121473 54.8337778,19.8244444 C54.8725155,19.7354324 54.9271911,19.6542475 54.9951111,19.5848889 C55.0608203,19.5195401 55.1389484,19.4680089 55.2248889,19.4333333 C55.3117587,19.3976945 55.4047706,19.3794244 55.4986667,19.3795556 L55.4986667,19.3795556 Z" id="Shape" fill="#0057A1" fill-rule="nonzero"></path>
                                </g>
                            </g>
                        </g>
                    </g>
                </g>
            </g>
        </g>
    </g>
</svg>