<?xml version="1.0" encoding="UTF-8"?>
<svg width="48px" height="22px" viewBox="0 0 48 22" version="1.1" xmlns="http://www.w3.org/2000/svg" xmlns:xlink="http://www.w3.org/1999/xlink">
    <!-- Generator: Sketch 61 (89581) - https://sketch.com -->
    <title>Oxxo</title>
    <desc>Created with Sketch.</desc>
    <g id="NGS_Payment_PayInCash" stroke="none" stroke-width="1" fill="none" fill-rule="evenodd">
        <g id="02_Payment_PayinCash" transform="translate(-488.000000, -1868.000000)">
            <g id="Payment" transform="translate(165.000000, 1479.000000)">
                <g transform="translate(0.000000, 66.000000)" id="Select-your-country_B">
                    <g transform="translate(285.000000, 130.000000)">
                        <g id="Debit" transform="translate(20.000000, 164.000000)">
                            <g id="Oxxo" transform="translate(6.000000, 24.000000)">
                                <rect id="Path" fill-rule="nonzero" x="0" y="0" width="72" height="32"></rect>
                                <g id="Oxxo_logo" transform="translate(12.000000, 5.000000)">
                                    <path d="M0.0123090029,1.49159169 C0.0123090029,0.675625023 0.679804669,0.00812935711 1.49577133,0.00812935711 L46.1704453,0.00812935711 C46.9864743,0.00812935711 47.65397,0.675625023 47.65397,1.49159169 L47.65397,20.4825296 C47.65397,21.298621 46.9864743,21.9660543 46.1704453,21.9660543 L1.49577133,21.9660543 C0.679804669,21.9660543 0.0123090029,21.298621 0.0123090029,20.4825296 L0.0123090029,1.49159169 Z" id="Path" fill="#F0A929"></path>
                                    <polygon id="Path" fill="#FFFFFF" points="0.0123090029 2.16401559 47.6540324 2.16401559 47.6540324 19.8099185 0.0123090029 19.8099185"></polygon>
                                    <path d="M40.3874375,6.74690359 C38.207721,6.74690359 36.4308725,8.52400163 36.4308725,10.7037181 C36.4308725,12.8826236 38.207721,14.6599711 40.3874375,14.6599711 C42.5667173,14.6599711 44.3436282,12.8826236 44.3436282,10.7037181 C44.3436282,8.52400163 42.5667173,6.74690359 40.3874375,6.74690359 Z" id="Path" fill="#E21C2A"></path>
                                    <path d="M7.77609457,6.74690359 C5.59619097,6.74690359 3.81909293,8.52400163 3.81909293,10.7037181 C3.81909293,12.8826236 5.59619097,14.6599711 7.77609457,14.6599711 C9.95500005,14.6599711 11.7321605,12.8826236 11.7321605,10.7037181 C11.7321605,8.52400163 9.95500005,6.74690359 7.77609457,6.74690359 Z" id="Path" fill="#E21C2A"></path>
                                    <path d="M40.076896,3.26475961 C36.4142787,3.18060525 34.692327,5.52919187 32.1932108,8.42593591 L29.8357034,11.1580518 L33.5688757,15.627216 C34.4582669,17.0003856 32.7607693,18.3631997 31.7076233,17.1066859 L28.2561093,12.9894229 L24.8928045,16.8883461 C23.8217546,18.1294514 22.1435333,16.7429943 23.0519512,15.3826756 L26.7030901,11.1368417 L24.3110851,8.28332889 L25.8498186,6.37765996 L28.2824972,9.29991856 L30.3794941,6.86062738 C31.4084355,5.66462487 32.4577761,4.07972815 33.817783,3.26475961 L0.0123713856,3.26475961 L0.0123713856,18.7094864 L7.91620628,18.7094864 C11.5793227,18.7094864 13.2421979,16.5193521 15.6735664,13.5659645 L17.9677553,10.7793884 L14.1318386,6.39812151 C13.2118175,5.045663 14.8770008,3.64448355 15.95903,4.87623139 L19.5041182,8.91308298 L22.7775918,4.93736651 C23.8194465,3.67130814 25.5288592,5.01939985 24.6522565,6.40042967 L21.0998071,10.7297317 L23.5571893,13.5274119 L22.0088489,15.360904 L19.5628828,12.602213 L17.5229661,15.0886032 C16.5217226,16.3080616 15.5081897,17.8633889 14.1670848,18.7094864 L47.6540947,18.7094864 L47.6540947,3.26475961 L40.076896,3.26475961 L40.076896,3.26475961 Z M14.0264741,10.7037181 C14.0264741,14.1468104 11.2189998,16.9545967 7.77609457,16.9545967 C4.332316,16.9545967 1.5248417,14.1468104 1.5248417,10.7037181 C1.5248417,7.26006428 4.332316,4.4525276 7.77609457,4.4525276 C11.2189998,4.4525276 14.0264741,7.26006428 14.0264741,10.7037181 Z M40.3874375,16.9545967 C36.9442827,16.9545967 34.1361846,14.1468104 34.1361846,10.7037181 C34.1361846,7.26006428 36.9442827,4.4525276 40.3874375,4.4525276 C43.8307794,4.4525276 46.6381913,7.26006428 46.6381913,10.7037181 C46.6381913,14.1468104 43.8307794,16.9545967 40.3874375,16.9545967 Z" id="Shape" fill="#E21C2A"></path>
                                </g>
                            </g>
                        </g>
                    </g>
                </g>
            </g>
        </g>
    </g>
</svg>