<?xml version="1.0" encoding="UTF-8"?>
<svg width="64px" height="16px" viewBox="0 0 64 16" version="1.1" xmlns="http://www.w3.org/2000/svg" xmlns:xlink="http://www.w3.org/1999/xlink">
    <!-- Generator: Sketch 61 (89581) - https://sketch.com -->
    <title>Walmart</title>
    <desc>Created with Sketch.</desc>
    <g id="NGS_Payment_PayInCash" stroke="none" stroke-width="1" fill="none" fill-rule="evenodd">
        <g id="02_Payment_PayinCash" transform="translate(-558.000000, -1871.000000)" fill-rule="nonzero">
            <g id="Payment" transform="translate(165.000000, 1479.000000)">
                <g transform="translate(0.000000, 66.000000)" id="Select-your-country_B">
                    <g transform="translate(285.000000, 130.000000)">
                        <g id="Debit" transform="translate(20.000000, 164.000000)">
                            <g id="Walmart" transform="translate(84.000000, 24.000000)">
                                <rect id="Path" x="0" y="0" width="72" height="32"></rect>
                                <g id="walmart" transform="translate(4.000000, 8.000000)">
                                    <g id="Group" transform="translate(32.044255, 8.039149) scale(-1, 1) rotate(-180.000000) translate(-32.044255, -8.039149) translate(0.129362, 0.166809)">
                                        <g transform="translate(0.191489, 0.225532)" id="Shape">
                                            <path d="M0,3.14611064 C0,3.14611064 1.57897872,9.6163234 1.83097872,10.6665362 C2.12510638,11.8923234 2.65507234,12.3434723 4.18306383,12.039217 L5.16902128,8.02772766 C5.41891064,7.03130213 5.58651915,6.32091915 5.74714894,5.30730213 L5.77540681,5.30730213 C5.88827489,6.3308766 6.04898979,7.03428085 6.25463234,8.03121702 C6.25463234,8.03121702 6.65598553,9.8523234 6.86151745,10.808834 C7.06759404,11.7650043 7.64110043,12.3676426 9.13777277,12.0395574 L11.4870494,3.14679149 L9.5902834,3.14679149 L8.78825787,6.99155745 C8.57262383,8.11070638 8.37694723,8.98517447 8.22608766,10.0090043 L8.19932596,10.0090043 C8.06221957,8.99538723 7.8878366,8.15555745 7.66860255,7.06517447 L6.83349617,3.14679149 L4.85724085,3.14679149 L3.96396426,6.96645106 C3.71089191,8.12713191 3.47419404,9.06440851 3.32367489,10.0535149 L3.29641447,10.0535149 C3.14226979,9.12202553 2.93695915,7.94406809 2.71463574,6.82049362 C2.71463574,6.82049362 2.18392085,4.08849362 1.9977166,3.14679149 L0.000184680851,3.14704681 L0,3.14611064 Z M18.0817021,3.14611064 L18.0817021,12.0388766 L19.8875745,12.0388766 L19.8875745,10.1505362 L19.8875745,3.14568511 L18.0817021,3.14568511 L18.0817021,3.14611064 Z M43.5157447,3.14611064 L43.5157447,9.70645106 C43.5157447,10.6109617 43.6859745,11.2446638 44.0501532,11.6318128 C44.3683234,11.9704085 44.8924,12.1896596 45.520366,12.1896596 C46.0542809,12.1896596 46.5796,12.0884 46.8271745,11.9961787 L46.8039038,10.5849447 C46.6196826,10.6302851 46.4077506,10.6665609 46.1178953,10.6665609 C45.5027379,10.6665609 45.296423,10.2725694 45.296423,9.46043319 L45.296423,6.95047574 L46.8691889,6.95047574 L46.8691889,5.24902894 L45.296423,5.24902894 L45.296423,3.14611064 L43.515657,3.14611064 L43.5157447,3.14611064 Z M14.0459574,5.20764255 C12.9236596,5.20764255 12.032766,5.52275745 11.5471489,5.80338723 L11.9025362,7.0203234 C12.3469702,6.74013617 13.0546213,6.50818723 13.7246638,6.50818723 C14.8340255,6.50533617 15.0153872,7.13546383 15.0153872,7.53959149 L15.0153872,7.63516596 C12.5981106,7.63153787 11.071217,8.468 11.071217,10.1730383 C11.071217,11.2140596 11.8484936,12.189634 13.2000681,12.189634 C14.0320681,12.189634 14.7278979,11.8578128 15.1449191,11.3261447 L15.1858102,11.3261447 C15.1858102,11.3261447 15.4619634,12.480783 16.9833421,12.0392426 C16.903417,11.5586809 16.8774613,11.0463064 16.8774613,10.4292 L16.8774613,8.05354043 C16.8774613,6.53941277 16.2309677,5.20764255 14.0459719,5.20764255 L14.0459574,5.20764255 Z M24.8485106,5.20764255 C23.7184681,5.20764255 23.2106383,5.7803234 22.9027234,6.26619574 L22.8759617,6.26619574 L22.8759617,5.35845106 L21.1525574,5.35845106 L21.1525574,12.0393021 L22.9680468,12.0393021 L22.9680468,8.12125957 C22.9680468,7.93758298 22.9890366,7.74335319 23.0531532,7.57438298 C23.2035702,7.17990638 23.570583,6.71846809 24.1565574,6.71846809 C24.8890851,6.71846809 25.2318766,7.33778723 25.2318766,8.23157447 L25.2318766,12.0393021 L27.0454085,12.0393021 L27.0454085,8.07378723 C27.0454085,7.89845106 27.0694451,7.68725957 27.1210409,7.53222979 C27.2701387,7.08351489 27.6657983,6.7184 28.2104877,6.7184 C28.953126,6.7184 29.3095515,7.32694468 29.3095515,8.37865532 L29.3095515,12.0393021 L31.12436,12.0393021 L31.12436,8.10444255 C31.12436,6.02929362 30.0706579,5.20764255 28.8812111,5.20764255 C28.3544366,5.20764255 27.9386579,5.3397617 27.562743,5.57054468 C27.24676,5.76443404 26.9639174,6.03991489 26.7166664,6.40265532 L26.6899047,6.40265532 C26.4022451,5.68265532 25.7273515,5.20764255 24.8482026,5.20764255 L24.8485106,5.20764255 Z M34.8178723,5.20764255 C33.6958298,5.20764255 32.8051064,5.52275745 32.3190638,5.80338723 L32.6749447,7.0203234 C33.1189447,6.74013617 33.8270298,6.50818723 34.4967319,6.50818723 C35.6053277,6.50533617 35.7871149,7.13546383 35.7871149,7.53959149 L35.7871149,7.63516596 C33.3701787,7.63153787 31.8431149,8.468 31.8431149,10.1730383 C31.8431149,11.2140596 32.6207915,12.189634 33.9730723,12.189634 C34.8044085,12.189634 35.5004766,11.8578128 35.9167319,11.3261447 L35.9577898,11.3261447 C35.9577898,11.3261447 36.2338919,12.480783 37.7554919,12.0392426 C37.6754494,11.5586809 37.6497728,11.0463064 37.6497728,10.4292 L37.6497728,8.05354043 C37.6497728,6.53941277 37.0031089,5.20764255 34.8178579,5.20764255 L34.8178723,5.20764255 Z M42.3571064,5.20757957 C41.6619064,5.20757957 40.8709787,5.65639149 40.5389787,6.61836596 L40.4882809,6.61836596 L40.4882809,5.35836596 L38.853983,5.35836596 L38.853983,12.039217 L40.7170468,12.039217 L40.7170468,8.61819574 C40.7170468,8.43364255 40.7282366,8.27273191 40.7574391,8.12517447 C40.8952264,7.4085617 41.443354,6.95045106 42.2300349,6.95045106 C42.4459923,6.95045106 42.600554,6.9738417 42.7677711,6.99799064 L42.7677711,5.24896936 C42.6275583,5.22063915 42.5316604,5.20757957 42.3572009,5.20757957 L42.3571064,5.20757957 Z M15.0737021,8.81904681 L15.0737021,9.65249362 C15.0737021,9.77577872 15.0629711,9.90297872 15.0288221,10.0141957 C14.8890604,10.4770809 14.409537,10.8682383 13.8100987,10.8682383 C13.310337,10.8682383 12.9133328,10.5846043 12.9133328,9.98457872 C12.9133328,9.06679149 13.9236306,8.81308936 15.0737583,8.81904681 L15.0737021,8.81904681 Z M35.845617,8.81904681 L35.845617,9.65249362 C35.845617,9.77577872 35.8346621,9.90297872 35.800737,10.0141957 C35.6609753,10.4770809 35.1816221,10.8682383 34.5821838,10.8682383 C34.0823115,10.8682383 33.6852477,10.5846043 33.6852477,9.98457872 C33.6852477,9.06679149 34.6955455,8.81308936 35.8456732,8.81904681 L35.845617,8.81904681 Z" fill="#007DC6" transform="translate(23.434594, 7.667672) scale(-1, 1) rotate(-180.000000) translate(-23.434594, -7.667672) "></path>
                                            <path d="M56.6331915,0.0807234043 C56.0501957,0.0807234043 55.5868085,0.406289362 55.5868085,0.802629787 L55.9408681,4.81173617 C55.9799532,5.0532766 56.2758298,5.23959149 56.6335234,5.23959149 C56.9919234,5.2391234 57.286766,5.05297021 57.3266723,4.81173617 L57.682417,0.802629787 C57.682417,0.406323404 57.2177362,0.0807234043 56.6339064,0.0807234043 L56.6331915,0.0807234043 Z M50.8634043,3.2966383 C50.5607404,3.30381957 50.2169191,3.53297021 49.9982128,3.9121617 C49.7057191,4.41708936 49.7575489,4.98135319 50.0997787,5.17931064 L53.7483745,6.87845957 C53.9763064,6.96323574 54.2858723,6.80136851 54.4651319,6.4923234 C54.4651574,6.4922806 54.4651072,6.49219574 54.4651319,6.49215319 C54.6452255,6.18158298 54.6312851,5.83238298 54.4416945,5.67748936 L51.1463753,3.36617021 C51.0607923,3.31660085 50.96452,3.29429532 50.8636264,3.29668851 L50.8634043,3.2966383 Z M62.4029787,3.2966383 C62.3021106,3.29424426 62.205983,3.31655064 62.1205617,3.36612 L58.824817,5.67743915 C58.6363489,5.83232426 58.6223745,6.18154128 58.8015464,6.49210298 L58.8017166,6.49227319 C58.98164,6.80132 59.2902017,6.96318383 59.5181421,6.87840936 L63.1683549,5.17934553 C63.512006,4.98138809 63.561257,4.41714979 63.2707464,3.9121966 C63.0510528,3.5329966 62.7066613,3.30385617 62.404023,3.29667319 L62.4029787,3.2966383 Z M53.8846809,8.58608511 C53.83748,8.58544681 53.7917191,8.59273872 53.7488766,8.60885787 L50.1002809,10.3059643 C49.7580596,10.5047898 49.7062298,11.0692664 49.9987149,11.5747302 C50.2903234,12.0786621 50.8043234,12.3182366 51.1466298,12.1206111 L54.4422043,9.81107915 C54.6318213,9.65429617 54.6458128,9.30518979 54.4656417,8.99492596 L54.4671396,8.99560681 C54.3214715,8.7428834 54.0892332,8.58881532 53.8846885,8.58603234 L53.8846809,8.58608511 Z M59.3833191,8.58608511 C59.1790128,8.58886809 58.947234,8.74293617 58.8012085,8.99565957 L58.8025362,8.99497872 C58.6232511,9.30524255 58.6371319,9.65434894 58.8256409,9.81113191 L62.1213855,12.1206638 C62.4630536,12.3182894 62.9775557,12.0787226 63.2704919,11.574783 C63.5610026,11.0693021 63.5117515,10.5048255 63.1681004,10.306017 L59.518994,8.60891064 C59.476154,8.59279149 59.4305004,8.58549532 59.3833515,8.58613787 L59.3833191,8.58608511 Z M56.6326809,10.247617 C56.2755915,10.2480426 55.9803915,10.433566 55.9413617,10.6744766 L55.5873021,14.6834128 C55.5873021,15.080417 56.0506809,15.4053191 56.6336851,15.4053191 C57.2177702,15.4053191 57.6820255,15.0804085 57.6820255,14.6834128 L57.3271404,10.6744766 C57.2872332,10.433566 56.9923915,10.2480766 56.6339915,10.247617 L56.6326638,10.247617 L56.6326809,10.247617 Z" fill="#FFC220" transform="translate(56.634131, 7.743021) scale(-1, 1) rotate(-180.000000) translate(-56.634131, -7.743021) "></path>
                                        </g>
                                    </g>
                                </g>
                            </g>
                        </g>
                    </g>
                </g>
            </g>
        </g>
    </g>
</svg>