<?xml version="1.0" encoding="UTF-8"?>
<svg width="47px" height="32px" viewBox="0 0 47 32" version="1.1" xmlns="http://www.w3.org/2000/svg" xmlns:xlink="http://www.w3.org/1999/xlink">
    <!-- Generator: Sketch 63.1 (92452) - https://sketch.com -->
    <title>Amex</title>
    <desc>Created with Sketch.</desc>
    <g id="Symbols" stroke="none" stroke-width="1" fill="none" fill-rule="evenodd">
        <g id="Home/Secure-Payment" transform="translate(-205.000000, -129.000000)" fill-rule="nonzero">
            <g id="Secure-Payment-with:">
                <g id="Secure-payment">
                    <g id="Group-5" transform="translate(32.000000, 92.000000)">
                        <g id="Payment-types" transform="translate(0.000000, 37.000000)">
                            <g id="Amex" transform="translate(173.000000, 0.000000)">
                                <path d="M2.50666667,0 L44.4933333,0 C45.8775952,0 47,1.21706667 47,2.71786667 L47,29.2821333 C47,30.7829333 45.8775952,32 44.4933333,32 L2.50666667,32 C1.12240476,32 0,30.7829333 0,29.2821333 L0,2.71786667 C0,1.21706667 1.12240476,0 2.50666667,0" id="Fill-1" fill="#006FD4"></path>
                                <path d="M10.6063178,14.3255346 L11.7310184,16.9198438 L9.39164128,16.9198438 L10.6063178,14.3255346 Z M31.2673548,18.388299 L27.3568576,18.388299 L27.3568576,16.9832885 L31.2673548,16.9832885 L31.2673548,15.7051673 L27.3568576,15.7051673 L27.3568576,14.5550889 L31.2673548,14.5550889 L31.2673548,13.4696087 L34.1673519,16.3696057 L31.2673548,19.2822917 L31.2673548,18.388299 Z M35.3174303,15.3475702 L33.401402,13.2781212 L25.709604,13.2781212 L25.709604,19.6664202 L33.1464699,19.6664202 L35.2539856,17.5704398 L37.3753438,19.6664202 L39.3559703,19.6664202 L36.3267769,16.4342039 L39.4447928,13.2781212 L37.3753438,13.2781212 L35.3174303,15.3475702 Z M24.2399953,13.2781212 L21.5568636,13.2781212 L19.5381703,17.5577509 L17.3649028,13.2781212 L14.6817711,13.2781212 L14.6817711,19.4749327 L11.9098169,13.2781212 L9.39164128,13.2781212 L6.42819959,19.6664202 L8.24271644,19.6664202 L8.84255672,18.210654 L12.2927919,18.210654 L12.9826082,19.6664202 L16.3174894,19.6664202 L16.3174894,14.4662664 L18.6810908,19.6664202 L20.2406756,19.6664202 L22.591588,14.5550889 L22.591588,19.6664202 L24.2399953,19.6664202 L24.2399953,13.2781212 Z M11.1819338,19.6283534 L10.005324,19.6283534 L11.1819338,19.6283534 Z M10.0087846,19.5337632 L9.40663729,20.9445414 L4,20.9445414 L8.26694076,12 L18.4573043,12 L19.4851075,13.9748588 L20.4460055,12 L24.0658109,12 L25.8907096,12 L34.184655,12 L35.3589577,13.2273655 L36.6197758,12 L43,12 L38.4700524,16.4618888 L42.8050519,20.9445414 L36.6301577,20.9445414 L35.2493715,19.6260463 L33.8789671,20.9445414 L25.8907096,20.9445414 L24.0658109,20.9445414 L11.8406046,20.9445414 L11.1773196,19.5337632 L10.0087846,19.5337632 Z" id="Fill-3" fill="#FFFFFF"></path>
                            </g>
                        </g>
                    </g>
                </g>
            </g>
        </g>
    </g>
</svg>