<?xml version="1.0" encoding="UTF-8"?>
<svg width="48px" height="32px" viewBox="0 0 48 32" version="1.1" xmlns="http://www.w3.org/2000/svg" xmlns:xlink="http://www.w3.org/1999/xlink">
    <!-- Generator: Sketch 63.1 (92452) - https://sketch.com -->
    <title>MasterCard</title>
    <desc>Created with Sketch.</desc>
    <g id="Symbols" stroke="none" stroke-width="1" fill="none" fill-rule="evenodd">
        <g id="Home/Secure-Payment" transform="translate(-118.000000, -129.000000)" fill-rule="nonzero">
            <g id="Secure-Payment-with:">
                <g id="Secure-payment">
                    <g id="Group-5" transform="translate(32.000000, 92.000000)">
                        <g id="Payment-types" transform="translate(0.000000, 37.000000)">
                            <g id="MasterCard" transform="translate(86.500000, 0.000000)">
                                <path d="M2.50666667,0 L44.4933333,0 C45.8775952,0 47,1.21706667 47,2.71786667 L47,29.2821333 C47,30.7829333 45.8775952,32 44.4933333,32 L2.50666667,32 C1.12240476,32 0,30.7829333 0,29.2821333 L0,2.71786667 C0,1.21706667 1.12240476,0 2.50666667,0" id="Fill-1" fill="#F7F7F7"></path>
                                <g id="Logo" transform="translate(12.000000, 7.000000)">
                                    <path d="M4.06995333,17.39088 L4.06995333,16.2330133 C4.06995333,15.7962133 3.79175333,15.50328 3.34455333,15.4989467 C3.10882,15.4946133 2.86528667,15.56828 2.69542,15.8274133 C2.56802,15.62288 2.36782,15.4989467 2.08528667,15.4989467 C1.88855333,15.4989467 1.69615333,15.5570133 1.54535333,15.77368 L1.54535333,15.5457467 L1.14408667,15.5457467 L1.14408667,17.39088 L1.54882,17.39088 L1.54882,16.3673467 C1.54882,16.0475467 1.72648667,15.87768 2.00122,15.87768 C2.26728667,15.87768 2.40248667,16.0510133 2.40248667,16.36388 L2.40248667,17.39088 L2.80722,17.39088 L2.80722,16.3673467 C2.80722,16.0475467 2.99268667,15.87768 3.25875333,15.87768 C3.53262,15.87768 3.66435333,16.0510133 3.66435333,16.36388 L3.66435333,17.39088 L4.06995333,17.39088 Z M10.0681533,15.5457467 L9.41208667,15.5457467 L9.41208667,14.98588 L9.00648667,14.98588 L9.00648667,15.5457467 L8.63295333,15.5457467 L8.63295333,15.9123467 L9.00648667,15.9123467 L9.00648667,16.7547467 C9.00648667,17.1820133 9.17288667,17.43768 9.64782,17.43768 C9.82115333,17.43768 10.02222,17.38308 10.14962,17.29468 L10.0334867,16.9506133 C9.91388667,17.0199467 9.78215333,17.0546133 9.67815333,17.0546133 C9.47795333,17.0546133 9.41208667,16.9315467 9.41208667,16.74608 L9.41208667,15.9123467 L10.0681533,15.9123467 L10.0681533,15.5457467 Z M13.4923533,15.4989467 C13.2600867,15.4989467 13.1101533,15.60728 13.0061533,15.7702133 L13.0061533,15.5457467 L12.6083533,15.5457467 L12.6083533,17.39088 L13.00962,17.39088 L13.00962,16.3569467 C13.00962,16.0510133 13.1404867,15.8820133 13.4030867,15.8820133 C13.4845533,15.8820133 13.5694867,15.8924133 13.65442,15.9279467 L13.7774867,15.55008 C13.6890867,15.5145467 13.5729533,15.4989467 13.4923533,15.4989467 Z M8.31575333,15.6922133 C8.12248667,15.56568 7.85642,15.4989467 7.56348667,15.4989467 C7.09548667,15.4989467 6.79562,15.7234133 6.79562,16.0900133 C6.79562,16.3907467 7.01922,16.57708 7.43175333,16.63428 L7.62155333,16.6611467 C7.84168667,16.69148 7.94482,16.7504133 7.94482,16.8544133 C7.94482,16.9974133 7.79835333,17.07888 7.52448667,17.07888 C7.24715333,17.07888 7.04608667,16.9896133 6.91088667,16.8856133 L6.72195333,17.1976133 C6.94122,17.35968 7.21942,17.43768 7.52015333,17.43768 C8.05315333,17.43768 8.36255333,17.1863467 8.36255333,16.83448 C8.36255333,16.5103467 8.11902,16.34048 7.71688667,16.28328 L7.52882,16.2555467 C7.35462,16.2330133 7.21508667,16.1983467 7.21508667,16.0744133 C7.21508667,15.9392133 7.34682,15.8577467 7.56695333,15.8577467 C7.80268667,15.8577467 8.03062,15.9470133 8.14242,16.0163467 L8.31575333,15.6922133 Z M19.07022,15.4989467 C18.83882,15.4989467 18.68802,15.60728 18.5831533,15.7702133 L18.5831533,15.5457467 L18.18622,15.5457467 L18.18622,17.39088 L18.5874867,17.39088 L18.5874867,16.3569467 C18.5874867,16.0510133 18.7183533,15.8820133 18.9809533,15.8820133 C19.06242,15.8820133 19.1473533,15.8924133 19.2322867,15.9279467 L19.3553533,15.55008 C19.2669533,15.5145467 19.15082,15.4989467 19.07022,15.4989467 Z M13.8970867,16.4687467 C13.8970867,17.0277467 14.2870867,17.43768 14.88162,17.43768 C15.15982,17.43768 15.3452867,17.37528 15.5454867,17.2175467 L15.3530867,16.8925467 C15.2022867,17.00088 15.0445533,17.0589467 14.8694867,17.0589467 C14.5496867,17.0546133 14.3139533,16.82408 14.3139533,16.4687467 C14.3139533,16.1125467 14.5496867,15.8820133 14.8694867,15.87768 C15.0445533,15.87768 15.2022867,15.93488 15.3530867,16.0432133 L15.5454867,15.71908 C15.3452867,15.5613467 15.15982,15.4989467 14.88162,15.4989467 C14.2870867,15.4989467 13.8970867,15.9080133 13.8970867,16.4687467 Z M17.6566867,16.4687467 L17.6566867,15.5457467 L17.25542,15.5457467 L17.25542,15.7702133 C17.12802,15.6029467 16.93562,15.4989467 16.67302,15.4989467 C16.15562,15.4989467 15.75002,15.9045467 15.75002,16.4687467 C15.75002,17.03208 16.15562,17.43768 16.67302,17.43768 C16.93562,17.43768 17.12802,17.3328133 17.25542,17.1664133 L17.25542,17.39088 L17.6566867,17.39088 L17.6566867,16.4687467 Z M16.16342,16.4687467 C16.16342,16.1446133 16.3757533,15.87768 16.7232867,15.87768 C17.0543533,15.87768 17.27882,16.13248 17.27882,16.4687467 C17.27882,16.8041467 17.0543533,17.0589467 16.7232867,17.0589467 C16.3757533,17.0589467 16.16342,16.79288 16.16342,16.4687467 Z M11.3187533,15.4989467 C10.7779533,15.4989467 10.4000867,15.8924133 10.4000867,16.4687467 C10.4000867,17.0546133 10.7935533,17.43768 11.3464867,17.43768 C11.62382,17.43768 11.87862,17.3683467 12.10222,17.1785467 L11.9063533,16.88128 C11.75122,17.0052133 11.5544867,17.0745467 11.36902,17.0745467 C11.1107533,17.0745467 10.87502,16.9549467 10.8169533,16.6221467 L12.1871533,16.6221467 C12.1914867,16.5727467 12.1949533,16.52248 12.1949533,16.4687467 C12.1914867,15.8924133 11.8361533,15.4989467 11.3187533,15.4989467 Z M11.3109533,15.8577467 C11.56922,15.8577467 11.73562,16.02068 11.7780867,16.3058133 L10.8212867,16.3058133 C10.8637533,16.03888 11.0249533,15.8577467 11.3109533,15.8577467 Z M21.3824867,16.4687467 L21.3824867,14.8047467 L20.9803533,14.8047467 L20.9803533,15.7702133 C20.85382,15.6029467 20.6605533,15.4989467 20.3979533,15.4989467 C19.8805533,15.4989467 19.4749533,15.9045467 19.4749533,16.4687467 C19.4749533,17.03208 19.8805533,17.43768 20.3979533,17.43768 C20.6605533,17.43768 20.85382,17.3328133 20.9803533,17.1664133 L20.9803533,17.39088 L21.3824867,17.39088 L21.3824867,16.4687467 Z M19.8874867,16.4687467 C19.8874867,16.1446133 20.1006867,15.87768 20.4473533,15.87768 C20.7801533,15.87768 21.0037533,16.13248 21.0037533,16.4687467 C21.0037533,16.8041467 20.7801533,17.0589467 20.4473533,17.0589467 C20.1006867,17.0589467 19.8874867,16.79288 19.8874867,16.4687467 Z M6.33108667,16.4687467 L6.33108667,15.5457467 L5.92982,15.5457467 L5.92982,15.7702133 C5.80328667,15.6029467 5.61002,15.4989467 5.34742,15.4989467 C4.83002,15.4989467 4.42442,15.9045467 4.42442,16.4687467 C4.42442,17.03208 4.83002,17.43768 5.34742,17.43768 C5.61002,17.43768 5.80328667,17.3328133 5.92982,17.1664133 L5.92982,17.39088 L6.33108667,17.39088 L6.33108667,16.4687467 Z M4.83782,16.4687467 C4.83782,16.1446133 5.05015333,15.87768 5.39768667,15.87768 C5.72962,15.87768 5.95322,16.13248 5.95322,16.4687467 C5.95322,16.8041467 5.72962,17.0589467 5.39768667,17.0589467 C5.05015333,17.0589467 4.83782,16.79288 4.83782,16.4687467 Z M22.0515533,17.12308 C22.0775533,17.12308 22.1009533,17.12828 22.1243533,17.1378133 C22.14602,17.1473467 22.1659533,17.1603467 22.1832867,17.17768 C22.1997533,17.19328 22.21362,17.2132133 22.2231533,17.2357467 C22.2326867,17.25828 22.2378867,17.28168 22.2378867,17.3068133 C22.2378867,17.3319467 22.2326867,17.3562133 22.2231533,17.37788 C22.21362,17.4004133 22.1997533,17.41948 22.1832867,17.4368133 C22.1659533,17.4524133 22.14602,17.46628 22.1243533,17.4758133 C22.1009533,17.4853467 22.0775533,17.48968 22.0515533,17.48968 C22.0246867,17.48968 22.00042,17.4853467 21.9778867,17.4758133 C21.9544867,17.46628 21.9345533,17.4524133 21.9180867,17.4368133 C21.9007533,17.41948 21.8877533,17.4004133 21.87822,17.37788 C21.8686867,17.3562133 21.8634867,17.3319467 21.8634867,17.3068133 C21.8634867,17.28168 21.8686867,17.25828 21.87822,17.2357467 C21.8877533,17.2132133 21.9007533,17.19328 21.9180867,17.17768 C21.9345533,17.1603467 21.9544867,17.1473467 21.9778867,17.1378133 C22.00042,17.12828 22.0246867,17.12308 22.0515533,17.12308 Z M22.0515533,17.4498133 C22.0714867,17.4498133 22.0896867,17.44548 22.1061533,17.4385467 C22.1234867,17.4307467 22.1390867,17.4203467 22.15122,17.4082133 C22.16422,17.3952133 22.17462,17.3796133 22.1815533,17.36228 C22.1893533,17.3449467 22.19282,17.3267467 22.19282,17.3068133 C22.19282,17.28688 22.1893533,17.2678133 22.1815533,17.2513467 C22.17462,17.2331467 22.16422,17.2184133 22.15122,17.2054133 C22.1390867,17.1924133 22.1234867,17.18288 22.1061533,17.17508 C22.0896867,17.1681467 22.0714867,17.16468 22.0515533,17.16468 C22.03162,17.16468 22.0125533,17.1681467 21.99522,17.17508 C21.9778867,17.18288 21.9622867,17.1924133 21.9492867,17.2054133 C21.9362867,17.2184133 21.9267533,17.2331467 21.9189533,17.2513467 C21.9111533,17.2678133 21.9085533,17.28688 21.9085533,17.3068133 C21.9085533,17.3267467 21.9111533,17.3449467 21.9189533,17.36228 C21.9267533,17.3796133 21.9362867,17.3952133 21.9492867,17.4082133 C21.9622867,17.4203467 21.9778867,17.4307467 21.99522,17.4385467 C22.0125533,17.44548 22.03162,17.4498133 22.0515533,17.4498133 Z M22.0619533,17.2210133 C22.08362,17.2210133 22.1009533,17.2262133 22.11222,17.2357467 C22.1243533,17.24528 22.13042,17.2591467 22.13042,17.2756133 C22.13042,17.28948 22.12522,17.3007467 22.1156867,17.31028 C22.10702,17.3189467 22.0931533,17.3250133 22.07582,17.3276133 L22.1312867,17.39088 L22.08882,17.39088 L22.03682,17.3276133 L22.0194867,17.3276133 L22.0194867,17.39088 L21.9830867,17.39088 L21.9830867,17.2210133 L22.0619533,17.2210133 Z" id="Fill-3" fill="#1F191A"></path>
                                    <path d="M21.85625,11.3221767 L21.85625,11.0426767 L21.9689167,11.0426767 L21.9689167,10.98526 L21.6818333,10.98526 L21.6818333,11.0426767 L21.7945,11.0426767 L21.7945,11.3221767 L21.85625,11.3221767 Z M22.4130833,11.3221767 L22.4130833,10.98526 L22.3253333,10.98526 L22.2235,11.21601 L22.12275,10.98526 L22.035,10.98526 L22.035,11.3221767 L22.09675,11.3221767 L22.09675,11.0686767 L22.1920833,11.28751 L22.2570833,11.28751 L22.3524167,11.0675933 L22.3524167,11.3221767 L22.4130833,11.3221767 Z" id="Fill-5" fill="#FF9500"></path>
                                    <polygon id="Fill-7" fill="#FF5F00" points="8.19936 12.41396 14.2790267 12.41396 14.2790267 1.48702667 8.19936 1.48702667"></polygon>
                                    <path d="M8.58866667,6.9498 C8.58866667,4.73286667 9.62693333,2.7586 11.2432667,1.48633333 C10.0611333,0.5564 8.5696,-2.66453526e-15 6.94806667,-2.66453526e-15 C3.11046667,-2.66453526e-15 -2.84217094e-14,3.1122 -2.84217094e-14,6.9498 C-2.84217094e-14,10.7874 3.11046667,13.8987333 6.94806667,13.8987333 C8.5696,13.8987333 10.0611333,13.3432 11.2432667,12.4132667 C9.62693333,11.1401333 8.58866667,9.16673333 8.58866667,6.9498" id="Fill-9" fill="#FF0015"></path>
                                    <path d="M22.4794267,6.9498 C22.4794267,10.7874 19.36896,13.8987333 15.5304933,13.8987333 C13.9098267,13.8987333 12.4182933,13.3432 11.23616,12.4132667 C12.8524933,11.1401333 13.89076,9.16673333 13.89076,6.9498 C13.89076,4.73286667 12.8524933,2.7586 11.23616,1.48633333 C12.4182933,0.5564 13.9098267,-2.66453526e-15 15.5304933,-2.66453526e-15 C19.36896,-2.66453526e-15 22.4794267,3.1122 22.4794267,6.9498" id="Fill-10" fill="#FFA000"></path>
                                </g>
                            </g>
                        </g>
                    </g>
                </g>
            </g>
        </g>
    </g>
</svg>