<?xml version="1.0" encoding="UTF-8"?>
<svg width="47px" height="32px" viewBox="0 0 47 32" version="1.1" xmlns="http://www.w3.org/2000/svg" xmlns:xlink="http://www.w3.org/1999/xlink">
    <!-- Generator: Sketch 63.1 (92452) - https://sketch.com -->
    <title>PayPal</title>
    <desc>Created with Sketch.</desc>
    <g id="Symbols" stroke="none" stroke-width="1" fill="none" fill-rule="evenodd">
        <g id="Home/Secure-Payment" transform="translate(-378.000000, -129.000000)" fill-rule="nonzero">
            <g id="Secure-Payment-with:">
                <g id="Secure-payment">
                    <g id="Group-5" transform="translate(32.000000, 92.000000)">
                        <g id="Payment-types" transform="translate(0.000000, 37.000000)">
                            <g id="PayPal" transform="translate(346.000000, 0.000000)">
                                <path d="M2.50666667,0 L44.4933333,0 C45.8775952,0 47,1.21706667 47,2.71786667 L47,29.2821333 C47,30.7829333 45.8775952,32 44.4933333,32 L2.50666667,32 C1.12240476,32 0,30.7829333 0,29.2821333 L0,2.71786667 C0,1.21706667 1.12240476,0 2.50666667,0" id="Fill-1-Copy" fill="#F7F7F7"></path>
                                <g id="Logo" transform="translate(9.000000, 6.000000)">
                                    <g id="PayPal" transform="translate(0.000000, 12.662548)">
                                        <path d="M3.50827822,0.000332448052 L1.23423,0.000332448052 C1.07869431,0.000234409218 0.946232208,0.113370307 0.922001412,0.267006978 L0.00227376506,6.09826647 C-0.00628327699,6.15302785 0.00955917187,6.20879083 0.0456298764,6.25087332 C0.081700581,6.29295581 0.134384571,6.31714033 0.189810422,6.31705944 L1.27546146,6.31705944 C1.43110486,6.31713166 1.56360629,6.20382106 1.58769004,6.05005226 L1.83574385,4.47727143 C1.8598081,4.32362706 1.99212248,4.21035579 2.14763992,4.21026445 L2.86752797,4.21026445 C4.36549364,4.21026445 5.23002433,3.48538872 5.45579985,2.04893773 C5.55754846,1.42049042 5.4601225,0.926710395 5.16584955,0.58089812 C4.84264808,0.201169641 4.26939773,0.000332448052 3.50827822,0.000332448052 L3.50827822,0.000332448052 Z M3.77063003,2.13007061 C3.64627061,2.94605457 3.02281098,2.94605457 2.41996708,2.94605457 L2.0768149,2.94605457 L2.31755345,1.42215298 C2.33211346,1.33004718 2.41150808,1.2622148 2.50475759,1.2622148 L2.66203568,1.2622148 C3.07268775,1.2622148 3.460064,1.2622148 3.66023611,1.49630311 C3.77960785,1.63595807 3.81618415,1.84344544 3.77063003,2.13007061 L3.77063003,2.13007061 Z M10.305817,2.10380218 L9.21684085,2.10380218 C9.12359133,2.10380363 9.04419672,2.17163456 9.0296367,2.26374035 L8.98142249,2.56832117 L8.90527729,2.45792725 C8.66952642,2.1157726 8.14382526,2.00138854 7.61912164,2.00138854 C6.41576142,2.00138854 5.38796744,2.91280339 5.18779533,4.19131128 C5.08371914,4.82906891 5.23168689,5.43889556 5.59345973,5.86417816 C5.92530651,6.25521204 6.40013337,6.41814282 6.96507092,6.41814282 C7.93467534,6.41814282 8.47234692,5.79468319 8.47234692,5.79468319 L8.4238002,6.09726893 C8.41504555,6.15201913 8.43070422,6.20785732 8.46665067,6.25007201 C8.50259712,6.29228671 8.55522618,6.31664406 8.61067183,6.31672672 L9.59158165,6.31672672 C9.74722505,6.31679914 9.87972648,6.20348855 9.90381023,6.04971974 L10.4923561,2.32259494 C10.5011231,2.26796482 10.4854939,2.21223792 10.449597,2.17013422 C10.4137,2.12803052 10.3611461,2.10378507 10.305817,2.10380218 L10.305817,2.10380218 Z M8.78790062,4.22323241 C8.68282689,4.84536199 8.18904687,5.26299682 7.55926951,5.26299682 C7.24305079,5.26299682 6.99034182,5.16158072 6.82807606,4.9693889 C6.66714034,4.77852712 6.60595817,4.50686498 6.65716499,4.20427924 C6.75525597,3.58746984 7.25734879,3.15620203 7.87748331,3.15620203 C8.18671928,3.15620203 8.43809821,3.25894818 8.60368908,3.45280256 C8.76961247,3.64865201 8.83544981,3.92197672 8.78790062,4.22323241 L8.78790062,4.22323241 Z M16.1054879,2.10380151 L15.0111915,2.10380151 C14.9064165,2.10396803 14.8084818,2.15585975 14.7495047,2.2424596 L13.2402337,4.46563351 L12.600481,2.32924518 C12.5601592,2.19545606 12.4369634,2.10386969 12.2972302,2.10380151 L11.221887,2.10380151 C11.1606423,2.10363931 11.1030936,2.13308086 11.0673897,2.18284197 C11.0316857,2.23260309 11.0222276,2.29655 11.0419981,2.35451608 L12.2473534,5.89177664 L11.1141532,7.49149092 C11.0730972,7.54931239 11.0677545,7.62521611 11.1003058,7.6882187 C11.1328571,7.75122128 11.1978563,7.79075184 11.2687712,7.79075184 L12.3617375,7.79075184 C12.4653213,7.79089422 12.5623788,7.74019065 12.6214292,7.65508673 L16.2611034,2.40140024 C16.3013118,2.34346703 16.3060314,2.2680005 16.2733543,2.20550907 C16.2406772,2.14301763 16.1760072,2.10380151 16.1054879,2.10380151 L16.1054879,2.10380151 Z" id="Shape" fill="#253B80"></path>
                                        <path d="M19.7285365,0.000332511803 L17.4541557,0.000332511803 C17.298746,0.000398075189 17.1664709,0.113494723 17.1422597,0.267006978 L16.222532,6.09826647 C16.2138747,6.15293357 16.2295894,6.20865021 16.2655359,6.25073696 C16.3014823,6.29282372 16.3540553,6.31705923 16.4094037,6.31705923 L17.5765201,6.31705923 C17.6852959,6.31689975 17.7777999,6.23765088 17.7946478,6.1301876 L18.0556696,4.47727143 C18.0797339,4.32362706 18.2120482,4.21035579 18.3675657,4.21026445 L19.0871212,4.21026445 C20.5854194,4.21026445 21.4496176,3.48538872 21.6757256,2.04893773 C21.7778067,1.42049042 21.6797157,0.926710395 21.3854428,0.58089812 C21.0625738,0.201169641 20.489656,0.000332511803 19.7285365,0.000332511803 L19.7285365,0.000332511803 Z M19.9908883,2.13007061 C19.8668614,2.94605457 19.2434018,2.94605457 18.6402253,2.94605457 L18.2974057,2.94605457 L18.5384767,1.42215298 C18.5527562,1.33002587 18.6321213,1.26209953 18.7253484,1.26221466 L18.8826265,1.26221466 C19.292946,1.26221466 19.6806548,1.26221466 19.8808269,1.49630311 C20.0001986,1.63595807 20.0364424,1.84344544 19.9908883,2.13007061 L19.9908883,2.13007061 Z M26.5257428,2.10380218 L25.4374316,2.10380218 C25.3441525,2.10354559 25.2647079,2.17154 25.25056,2.26374035 L25.2023458,2.56832117 L25.1258681,2.45792725 C24.8901172,2.1157726 24.3647485,2.00138854 23.8400449,2.00138854 C22.6366847,2.00138854 21.6092232,2.91280339 21.4090511,4.19131128 C21.3053074,4.82906891 21.4526102,5.43889556 21.814383,5.86417816 C22.1468948,6.25521204 22.6210567,6.41814282 23.1859942,6.41814282 C24.1555986,6.41814282 24.6932702,5.79468319 24.6932702,5.79468319 L24.6447235,6.09726893 C24.6359504,6.15213388 24.6516937,6.20808517 24.6877897,6.25032511 C24.7238856,6.29256504 24.7766983,6.31683885 24.8322601,6.31672672 L25.8128374,6.31672672 C25.9683549,6.31663538 26.1006693,6.20336411 26.1247335,6.04971974 L26.7136119,2.32259494 C26.7220599,2.26779682 26.7061322,2.21204387 26.6700119,2.16997813 C26.6338916,2.12791238 26.5811882,2.10373743 26.5257428,2.10380218 L26.5257428,2.10380218 Z M25.0078264,4.22323241 C24.9034177,4.84536199 24.4089726,5.26299682 23.7791953,5.26299682 C23.4636416,5.26299682 23.2102676,5.16158072 23.0480018,4.9693889 C22.8870661,4.77852712 22.8265489,4.50686498 22.8770907,4.20427924 C22.9758467,3.58746984 23.4772745,3.15620203 24.0974091,3.15620203 C24.406645,3.15620203 24.658024,3.25894818 24.8236148,3.45280256 C24.9902032,3.64865201 25.0560406,3.92197672 25.0078264,4.22323241 L25.0078264,4.22323241 Z M27.8095708,0.160270689 L26.8762102,6.09826647 C26.8675529,6.15293357 26.8832676,6.20865021 26.919214,6.25073696 C26.9551605,6.29282372 27.0077335,6.31705923 27.0630818,6.31705923 L28.0014301,6.31705923 C28.1573782,6.31705923 28.2897179,6.20400522 28.3136587,6.05005226 L29.2340514,0.219125278 C29.2426982,0.164426816 29.2269899,0.108682649 29.191056,0.0665466371 C29.1551221,0.0244106254 29.1025574,9.80029486e-05 29.0471798,-4.61852778e-14 L27.9964425,-4.61852778e-14 C27.903263,0.000329939158 27.8240939,0.0682293815 27.8095708,0.160270689 L27.8095708,0.160270689 Z" id="Shape" fill="#179BD7"></path>
                                    </g>
                                    <g id="PP" transform="translate(10.552124, 0.000000)">
                                        <path d="M2.55667756,10.2584977 L2.740707,9.08957652 L2.33077527,9.08007595 L0.373307236,9.08007595 L1.73364723,0.454619575 C1.74201772,0.400148237 1.78902532,0.3600271 1.84413527,0.360316113 L5.14470154,0.360316113 C6.24043324,0.360316113 6.99660775,0.588331215 7.39140896,1.03837644 C7.57649401,1.24950009 7.69437138,1.47012429 7.75137476,1.71291648 C7.81119313,1.96767234 7.81224875,2.27204226 7.75383787,2.64326799 L7.7496154,2.67036219 L7.7496154,2.90822816 L7.93470046,3.01308624 C8.07599744,3.08467125 8.20300362,3.18150601 8.30944492,3.2988069 C8.46778765,3.47931761 8.57018262,3.70873864 8.61346297,3.98073626 C8.65815081,4.26047509 8.64337215,4.5933467 8.57018262,4.9702024 C8.48573316,5.40370961 8.34920654,5.78126905 8.16482523,6.09021331 C8.00214315,6.36697755 7.78341064,6.60668441 7.52265749,6.79395879 C7.27775406,6.96778392 6.98675531,7.09973619 6.6577543,7.18418565 C6.3389576,7.26722762 5.97547307,7.30910047 5.57680126,7.30910047 L5.31993416,7.30910047 C5.13625659,7.30910047 4.95785711,7.37525255 4.81781176,7.49383366 C4.67796497,7.61368005 4.58519381,7.77927159 4.55601845,7.96112065 L4.53666545,8.0663306 L4.21153504,10.1265455 L4.19675639,10.2021981 C4.19288579,10.2261255 4.1862002,10.2380891 4.17634777,10.2461822 C4.16680355,10.2539875 4.15489627,10.2583287 4.14256798,10.2584977 L2.55667756,10.2584977 Z" id="Path" fill="#253B80"></path>
                                        <path d="M8.10993308,2.69780827 C8.10008065,2.76079349 8.08882072,2.8251862 8.0761533,2.89133827 C7.64088673,5.12608202 6.15176131,5.8980908 4.24988917,5.8980908 L3.2815354,5.8980908 C3.04894752,5.8980908 2.85295441,6.06698971 2.81671151,6.29641074 L2.32092283,9.44074551 L2.18052561,10.3320391 C2.1692071,10.4035878 2.18977324,10.4765058 2.23680953,10.5315957 C2.28384582,10.5866857 2.35263879,10.6184636 2.42507716,10.6184636 L4.14256798,10.6184636 C4.34595043,10.6184636 4.51871994,10.470677 4.55074036,10.2701095 L4.56763025,10.1828451 L4.89100129,8.13072331 L4.91176178,8.01812404 C4.94343033,7.81685283 5.11655172,7.66906628 5.31993416,7.66906628 L5.57680126,7.66906628 C7.24080742,7.66906628 8.54344029,6.99347063 8.92416659,5.03846571 C9.08321307,4.22176909 9.00087485,3.53983972 8.58003506,3.06023719 C8.44665074,2.91187464 8.28734818,2.78905905 8.10993308,2.69780827 L8.10993308,2.69780827 Z" id="Path" fill="#179BD7"></path>
                                        <path d="M7.65460976,2.51624194 C7.51562931,2.47603738 7.37424645,2.44465814 7.23130686,2.42229191 C6.94886563,2.37888555 6.66341411,2.35805912 6.3776636,2.36001044 L3.79069525,2.36001044 C3.58726981,2.35988505 3.41411751,2.5080562 3.38287475,2.70906819 L2.83254579,6.19471952 L2.81671151,6.29641074 C2.85213706,6.06712857 3.04953267,5.89797503 3.2815354,5.8980908 L4.24988917,5.8980908 C6.15176131,5.8980908 7.64088673,5.12573015 8.0761533,2.89133827 C8.08917259,2.8251862 8.10008065,2.76079349 8.10993308,2.69780827 C7.99507665,2.63757771 7.87537252,2.58708305 7.75207851,2.54685486 C7.71975481,2.53612973 7.68726104,2.5259241 7.65460976,2.51624194 L7.65460976,2.51624194 Z" id="Path" fill="#222D65"></path>
                                        <path d="M3.38287475,2.70906819 C3.41385659,2.5079636 3.58721912,2.35973041 3.79069525,2.36036231 L6.3776636,2.36036231 C6.68414476,2.36036231 6.97021729,2.38041906 7.23130686,2.42264379 C7.40798481,2.45041085 7.58222296,2.49194095 7.75243038,2.54685486 C7.88086393,2.58943146 8.00014879,2.63974927 8.11028496,2.69780827 C8.23977412,1.87196296 8.10922934,1.30967032 7.66270283,0.800510474 C7.17043288,0.239977206 6.28195422,-3.55271368e-14 5.14505341,-3.55271368e-14 L1.84448714,-3.55271368e-14 C1.61225114,-3.55271368e-14 1.41414679,0.168898913 1.37825577,0.39867181 L0.0034889901,9.11280012 C-0.00946993188,9.1946764 0.0140414752,9.27812387 0.0678385172,9.3411916 C0.121635559,9.40425933 0.200332415,9.44063337 0.283227815,9.44074551 L2.32092283,9.44074551 L2.83254579,6.19471952 L3.38287475,2.70906819 Z" id="Path" fill="#253B80"></path>
                                    </g>
                                </g>
                            </g>
                        </g>
                    </g>
                </g>
            </g>
        </g>
    </g>
</svg>