<?xml version="1.0" encoding="UTF-8"?>
<svg width="47px" height="30px" viewBox="0 0 47 30" version="1.1" xmlns="http://www.w3.org/2000/svg" xmlns:xlink="http://www.w3.org/1999/xlink">
    <title>visa</title>
    <g id="Page-1" stroke="none" stroke-width="1" fill="none" fill-rule="evenodd">
        <g id="visa" transform="translate(-0.000000, -0.000000)">
            <polygon id="Fill-1" fill="#FFFFFF" points="0 29.716129 46.6967742 29.716129 46.6967742 0 0 0"></polygon>
            <polygon id="Fill-2" fill="#FCB316" points="0.788387097 28.9277419 45.9690323 28.9277419 45.9690323 24.803871 0.788387097 24.803871"></polygon>
            <path d="M22.9845161,9.2786086 L20.6193548,20.4378237 L17.7083871,20.4378237 L20.0735484,9.2786086 L22.9845161,9.2786086 Z M35.0529032,16.4953828 L36.5690323,12.3108667 L37.4787097,16.4953828 L35.0529032,16.4953828 Z M38.2670968,20.4378237 L40.9354839,20.4378237 L38.6309677,9.2786086 L36.1445161,9.2786086 C35.5987097,9.2786086 35.1741935,9.64247957 34.9316129,10.1276409 L30.6258065,20.4378237 L33.6580645,20.4378237 L34.2645161,18.7392538 L37.963871,18.7392538 L38.2670968,20.4378237 Z M30.7470968,16.7986086 C30.8077419,13.8269957 26.7445161,13.7057054 26.7445161,12.3715118 C26.7445161,12.0076409 27.1083871,11.5831247 27.9574194,11.4618344 C28.3819355,11.4011892 29.5341935,11.3405441 30.8077419,11.9469957 L31.2929032,9.58183441 C30.6258065,9.33925376 29.716129,9.09667312 28.6245161,9.09667312 C25.7741935,9.09667312 23.7729032,10.6128022 23.7729032,12.796028 C23.7122581,14.3728022 25.1677419,15.2824796 26.2593548,15.7676409 C27.4116129,16.3134473 27.7754839,16.6773183 27.7754839,17.1624796 C27.7754839,17.951372 26.8658065,18.2540925 26.0167742,18.2540925 C24.6219355,18.3147376 23.7729032,17.8907269 23.1058065,17.5869957 L22.56,20.0128022 C23.2270968,20.316028 24.5006452,20.5586086 25.7741935,20.6192538 C28.8064516,20.6192538 30.7470968,19.1031247 30.7470968,16.7986086 L30.7470968,16.7986086 Z M18.8606452,9.2786086 L14.1909677,20.4378237 L11.1587097,20.4378237 L8.85419355,11.5224796 C8.73290323,10.9766731 8.6116129,10.7947376 8.18709677,10.552157 C7.52,10.188286 6.36774194,9.82441505 5.33677419,9.64247957 L5.39741935,9.2786086 L10.3096774,9.2786086 C10.916129,9.2786086 11.5225806,9.70312473 11.643871,10.4308667 L12.8567742,16.8592538 L15.8283871,9.2786086 L18.8606452,9.2786086 Z" id="Fill-3" fill="#10357F"></path>
            <polygon id="Fill-5" fill="#10357F" points="0.788387097 4.8516129 45.9690323 4.8516129 45.9690323 0.788387097 0.788387097 0.788387097"></polygon>
        </g>
    </g>
</svg>